<svg xmlns="http://www.w3.org/2000/svg" version="1.1"
    width="744" height="522"
    viewBox="0 0 744 522">
  <style type="text/css" source-text-origin="source-independent defaults: shared by ASCII and UTF-8">
    svg {
        color-scheme: light dark; /* this becomes necessary if not inherited from parent elements */
        font-family: monospace;
        font-size: 15px;
    }
    text {
        stroke: none;
        text-anchor: middle;
    }
    .path {
        fill: none;
    }
    circle.filled {
        fill: inherit;
    }
    circle.hollow {
         fill: none;
    }
    svg {
        color: #212;  /* set value of 'currentColor' */
    }
    @media (prefers-color-scheme: dark) {
        svg {
            color: #FEF;  /* set value of 'currentColor' */
        }
    }
    svg {
        fill: currentColor;
        stroke: currentColor;
    }

    svg {
        background-color: #FEF
    }
    text {
        fill: #900
    }
    @media (prefers-color-scheme: dark) {
        svg {
            background-color: #212
        }
        text {
            fill: #FBB
        }
    }
  </style>

<g transform='translate(8,12)'>
  <g id='lines'>
    <polyline class="path" points="8,320 24,320"/>
    <polyline class="path" points="40,320 56,320"/>
    <polyline class="path" points="8,336 24,336"/>
    <polyline class="path" points="40,336 56,336"/>
    <polyline class="path" points="14,368 18,368"/>
    <polyline class="path" points="14,400 18,400"/>
    <polyline class="path" points="14,432 18,432"/>
    <polyline class="path" points="14,448 18,448"/>
    <polyline class="path" points="8,480 24,480"/>
    <polyline class="path" points="8,496 24,496"/>
    <polyline class="path" points="8,320 8,336"/>
    <polyline class="path" points="8,374 8,394"/>
    <polyline class="path" points="24,320 24,336"/>
    <polyline class="path" points="24,374 24,394"/>
    <polyline class="path" points="40,320 40,336"/>
    <polyline class="path" points="56,320 56,336"/>
  </g>
  <g id='triangles'>
    <polygon points="680,96 668,90.4 668,101.6" transform="rotate(0, 672, 96)" class="arrowhead"></polygon>
  </g>
  <g id='roundedCorners'>
  </g>
  <g id='circles'>
    <circle cx="0" cy="0" r="6" class="hollow"></circle>
    <circle cx="8" cy="32" r="6" class="hollow"></circle>
    <circle cx="8" cy="368" r="6" class="hollow"></circle>
    <circle cx="8" cy="400" r="6" class="hollow"></circle>
    <circle cx="8" cy="432" r="6" class="hollow"></circle>
    <circle cx="8" cy="448" r="6" class="hollow"></circle>
    <circle cx="8" cy="480" r="6" class="filled"></circle>
    <circle cx="8" cy="496" r="6" class="filled"></circle>
    <circle cx="24" cy="368" r="6" class="hollow"></circle>
    <circle cx="24" cy="400" r="6" class="hollow"></circle>
    <circle cx="24" cy="432" r="6" class="hollow"></circle>
    <circle cx="24" cy="448" r="6" class="hollow"></circle>
    <circle cx="24" cy="480" r="6" class="filled"></circle>
    <circle cx="24" cy="496" r="6" class="filled"></circle>
  </g>
  <g id='bridges'>
  </g>
  <g id='text'>
    <text x="16" y="4">X</text>
    <text x="0" y="20">X</text>
    <text x="8" y="20">X</text>
    <text x="16" y="20">X</text>
    <text x="24" y="36">X</text>
    <text x="32" y="36">X</text>
    <text x="0" y="68">R</text>
    <text x="8" y="68">e</text>
    <text x="16" y="68">g</text>
    <text x="24" y="68">a</text>
    <text x="32" y="68">r</text>
    <text x="40" y="68">d</text>
    <text x="48" y="68">i</text>
    <text x="56" y="68">n</text>
    <text x="64" y="68">g</text>
    <text x="80" y="68">t</text>
    <text x="88" y="68">h</text>
    <text x="96" y="68">e</text>
    <text x="112" y="68">a</text>
    <text x="120" y="68">b</text>
    <text x="128" y="68">o</text>
    <text x="136" y="68">v</text>
    <text x="144" y="68">e</text>
    <text x="152" y="68">:</text>
    <text x="16" y="84">1</text>
    <text x="24" y="84">.</text>
    <text x="40" y="84">D</text>
    <text x="48" y="84">o</text>
    <text x="56" y="84">t</text>
    <text x="64" y="84">s</text>
    <text x="88" y="84">–</text>
    <text x="104" y="84">r</text>
    <text x="112" y="84">e</text>
    <text x="120" y="84">q</text>
    <text x="128" y="84">u</text>
    <text x="136" y="84">e</text>
    <text x="144" y="84">s</text>
    <text x="152" y="84">t</text>
    <text x="160" y="84">e</text>
    <text x="168" y="84">d</text>
    <text x="184" y="84">w</text>
    <text x="192" y="84">i</text>
    <text x="200" y="84">t</text>
    <text x="208" y="84">h</text>
    <text x="224" y="84">"</text>
    <text x="232" y="84">*</text>
    <text x="240" y="84">"</text>
    <text x="256" y="84">o</text>
    <text x="264" y="84">r</text>
    <text x="280" y="84">"</text>
    <text x="288" y="84">o</text>
    <text x="296" y="84">"</text>
    <text x="312" y="84">–</text>
    <text x="328" y="84">a</text>
    <text x="336" y="84">r</text>
    <text x="344" y="84">e</text>
    <text x="360" y="84">c</text>
    <text x="368" y="84">e</text>
    <text x="376" y="84">n</text>
    <text x="384" y="84">t</text>
    <text x="392" y="84">e</text>
    <text x="400" y="84">r</text>
    <text x="408" y="84">e</text>
    <text x="416" y="84">d</text>
    <text x="432" y="84">o</text>
    <text x="440" y="84">n</text>
    <text x="456" y="84">a</text>
    <text x="464" y="84">n</text>
    <text x="480" y="84">X</text>
    <text x="488" y="84">y</text>
    <text x="496" y="84">I</text>
    <text x="504" y="84">n</text>
    <text x="512" y="84">d</text>
    <text x="520" y="84">e</text>
    <text x="528" y="84">x</text>
    <text x="544" y="84">c</text>
    <text x="552" y="84">e</text>
    <text x="560" y="84">l</text>
    <text x="568" y="84">l</text>
    <text x="576" y="84">,</text>
    <text x="592" y="84">a</text>
    <text x="600" y="84">s</text>
    <text x="616" y="84">s</text>
    <text x="624" y="84">e</text>
    <text x="632" y="84">e</text>
    <text x="640" y="84">n</text>
    <text x="656" y="84">f</text>
    <text x="664" y="84">r</text>
    <text x="672" y="84">o</text>
    <text x="680" y="84">m</text>
    <text x="40" y="100">c</text>
    <text x="48" y="100">o</text>
    <text x="56" y="100">o</text>
    <text x="64" y="100">r</text>
    <text x="72" y="100">d</text>
    <text x="88" y="100">f</text>
    <text x="96" y="100">r</text>
    <text x="104" y="100">a</text>
    <text x="112" y="100">m</text>
    <text x="120" y="100">e</text>
    <text x="136" y="100">w</text>
    <text x="144" y="100">i</text>
    <text x="152" y="100">t</text>
    <text x="160" y="100">h</text>
    <text x="168" y="100">i</text>
    <text x="176" y="100">n</text>
    <text x="192" y="100">f</text>
    <text x="200" y="100">i</text>
    <text x="208" y="100">n</text>
    <text x="216" y="100">a</text>
    <text x="224" y="100">l</text>
    <text x="240" y="100">S</text>
    <text x="248" y="100">V</text>
    <text x="256" y="100">G</text>
    <text x="272" y="100">s</text>
    <text x="280" y="100">p</text>
    <text x="288" y="100">a</text>
    <text x="296" y="100">c</text>
    <text x="304" y="100">e</text>
    <text x="320" y="100">(</text>
    <text x="328" y="100">a</text>
    <text x="336" y="100">s</text>
    <text x="352" y="100">o</text>
    <text x="360" y="100">f</text>
    <text x="368" y="100">f</text>
    <text x="376" y="100">s</text>
    <text x="384" y="100">e</text>
    <text x="392" y="100">t</text>
    <text x="408" y="100">b</text>
    <text x="416" y="100">y</text>
    <text x="432" y="100">&lt;</text>
    <text x="440" y="100">g</text>
    <text x="456" y="100">t</text>
    <text x="464" y="100">r</text>
    <text x="472" y="100">a</text>
    <text x="480" y="100">n</text>
    <text x="488" y="100">s</text>
    <text x="496" y="100">f</text>
    <text x="504" y="100">o</text>
    <text x="512" y="100">r</text>
    <text x="520" y="100">m</text>
    <text x="528" y="100">=</text>
    <text x="536" y="100">'</text>
    <text x="544" y="100">t</text>
    <text x="552" y="100">r</text>
    <text x="560" y="100">a</text>
    <text x="568" y="100">n</text>
    <text x="576" y="100">s</text>
    <text x="584" y="100">l</text>
    <text x="592" y="100">a</text>
    <text x="600" y="100">t</text>
    <text x="608" y="100">e</text>
    <text x="616" y="100">(</text>
    <text x="624" y="100">8</text>
    <text x="632" y="100">,</text>
    <text x="640" y="100">1</text>
    <text x="648" y="100">6</text>
    <text x="656" y="100">)</text>
    <text x="16" y="116">2</text>
    <text x="24" y="116">.</text>
    <text x="40" y="116">"</text>
    <text x="48" y="116">D</text>
    <text x="56" y="116">o</text>
    <text x="64" y="116">t</text>
    <text x="72" y="116">s</text>
    <text x="80" y="116">"</text>
    <text x="96" y="116">c</text>
    <text x="104" y="116">r</text>
    <text x="112" y="116">e</text>
    <text x="120" y="116">a</text>
    <text x="128" y="116">t</text>
    <text x="136" y="116">e</text>
    <text x="152" y="116">a</text>
    <text x="168" y="116">s</text>
    <text x="176" y="116">p</text>
    <text x="184" y="116">e</text>
    <text x="192" y="116">c</text>
    <text x="200" y="116">i</text>
    <text x="208" y="116">a</text>
    <text x="216" y="116">l</text>
    <text x="232" y="116">c</text>
    <text x="240" y="116">a</text>
    <text x="248" y="116">s</text>
    <text x="256" y="116">e</text>
    <text x="272" y="116">b</text>
    <text x="280" y="116">y</text>
    <text x="296" y="116">e</text>
    <text x="304" y="116">x</text>
    <text x="312" y="116">e</text>
    <text x="320" y="116">r</text>
    <text x="328" y="116">t</text>
    <text x="336" y="116">i</text>
    <text x="344" y="116">n</text>
    <text x="352" y="116">g</text>
    <text x="368" y="116">c</text>
    <text x="376" y="116">l</text>
    <text x="384" y="116">a</text>
    <text x="392" y="116">i</text>
    <text x="400" y="116">m</text>
    <text x="408" y="116">s</text>
    <text x="424" y="116">o</text>
    <text x="432" y="116">n</text>
    <text x="40" y="132">*</text>
    <text x="48" y="132">t</text>
    <text x="56" y="132">h</text>
    <text x="64" y="132">r</text>
    <text x="72" y="132">e</text>
    <text x="80" y="132">e</text>
    <text x="88" y="132">*</text>
    <text x="104" y="132">h</text>
    <text x="112" y="132">o</text>
    <text x="120" y="132">r</text>
    <text x="128" y="132">i</text>
    <text x="136" y="132">z</text>
    <text x="144" y="132">o</text>
    <text x="152" y="132">n</text>
    <text x="160" y="132">t</text>
    <text x="168" y="132">a</text>
    <text x="176" y="132">l</text>
    <text x="184" y="132">l</text>
    <text x="192" y="132">y</text>
    <text x="208" y="132">a</text>
    <text x="216" y="132">d</text>
    <text x="224" y="132">j</text>
    <text x="232" y="132">a</text>
    <text x="240" y="132">c</text>
    <text x="248" y="132">e</text>
    <text x="256" y="132">n</text>
    <text x="264" y="132">t</text>
    <text x="280" y="132">X</text>
    <text x="288" y="132">y</text>
    <text x="296" y="132">I</text>
    <text x="304" y="132">n</text>
    <text x="312" y="132">d</text>
    <text x="320" y="132">e</text>
    <text x="328" y="132">x</text>
    <text x="344" y="132">c</text>
    <text x="352" y="132">e</text>
    <text x="360" y="132">l</text>
    <text x="368" y="132">l</text>
    <text x="376" y="132">s</text>
    <text x="384" y="132">,</text>
    <text x="40" y="148">b</text>
    <text x="48" y="148">e</text>
    <text x="56" y="148">c</text>
    <text x="64" y="148">a</text>
    <text x="72" y="148">u</text>
    <text x="80" y="148">s</text>
    <text x="88" y="148">e</text>
    <text x="104" y="148">t</text>
    <text x="112" y="148">h</text>
    <text x="120" y="148">e</text>
    <text x="128" y="148">y</text>
    <text x="144" y="148">a</text>
    <text x="152" y="148">r</text>
    <text x="160" y="148">e</text>
    <text x="176" y="148">c</text>
    <text x="184" y="148">e</text>
    <text x="192" y="148">n</text>
    <text x="200" y="148">t</text>
    <text x="208" y="148">e</text>
    <text x="216" y="148">r</text>
    <text x="224" y="148">e</text>
    <text x="232" y="148">d</text>
    <text x="248" y="148">o</text>
    <text x="256" y="148">n</text>
    <text x="272" y="148">a</text>
    <text x="288" y="148">c</text>
    <text x="296" y="148">e</text>
    <text x="304" y="148">l</text>
    <text x="312" y="148">l</text>
    <text x="320" y="148">,</text>
    <text x="336" y="148">a</text>
    <text x="344" y="148">n</text>
    <text x="352" y="148">d</text>
    <text x="368" y="148">e</text>
    <text x="376" y="148">x</text>
    <text x="384" y="148">t</text>
    <text x="392" y="148">e</text>
    <text x="400" y="148">n</text>
    <text x="408" y="148">d</text>
    <text x="424" y="148">i</text>
    <text x="432" y="148">n</text>
    <text x="440" y="148">t</text>
    <text x="448" y="148">o</text>
    <text x="464" y="148">l</text>
    <text x="472" y="148">e</text>
    <text x="480" y="148">f</text>
    <text x="488" y="148">t</text>
    <text x="504" y="148">a</text>
    <text x="512" y="148">n</text>
    <text x="520" y="148">d</text>
    <text x="536" y="148">r</text>
    <text x="544" y="148">i</text>
    <text x="552" y="148">g</text>
    <text x="560" y="148">h</text>
    <text x="568" y="148">t</text>
    <text x="584" y="148">n</text>
    <text x="592" y="148">e</text>
    <text x="600" y="148">i</text>
    <text x="608" y="148">g</text>
    <text x="616" y="148">h</text>
    <text x="624" y="148">b</text>
    <text x="632" y="148">o</text>
    <text x="640" y="148">r</text>
    <text x="648" y="148">s</text>
    <text x="656" y="148">.</text>
    <text x="40" y="164">I</text>
    <text x="48" y="164">n</text>
    <text x="56" y="164">p</text>
    <text x="64" y="164">u</text>
    <text x="72" y="164">t</text>
    <text x="88" y="164">.</text>
    <text x="96" y="164">t</text>
    <text x="104" y="164">x</text>
    <text x="112" y="164">t</text>
    <text x="120" y="164">-</text>
    <text x="128" y="164">f</text>
    <text x="136" y="164">i</text>
    <text x="144" y="164">l</text>
    <text x="152" y="164">e</text>
    <text x="168" y="164">n</text>
    <text x="176" y="164">e</text>
    <text x="184" y="164">i</text>
    <text x="192" y="164">g</text>
    <text x="200" y="164">h</text>
    <text x="208" y="164">b</text>
    <text x="216" y="164">o</text>
    <text x="224" y="164">r</text>
    <text x="232" y="164">s</text>
    <text x="248" y="164">l</text>
    <text x="256" y="164">e</text>
    <text x="264" y="164">f</text>
    <text x="272" y="164">t</text>
    <text x="288" y="164">a</text>
    <text x="296" y="164">n</text>
    <text x="304" y="164">d</text>
    <text x="320" y="164">r</text>
    <text x="328" y="164">i</text>
    <text x="336" y="164">g</text>
    <text x="344" y="164">h</text>
    <text x="352" y="164">t</text>
    <text x="368" y="164">m</text>
    <text x="376" y="164">u</text>
    <text x="384" y="164">s</text>
    <text x="392" y="164">t</text>
    <text x="408" y="164">t</text>
    <text x="416" y="164">h</text>
    <text x="424" y="164">e</text>
    <text x="432" y="164">r</text>
    <text x="440" y="164">e</text>
    <text x="448" y="164">f</text>
    <text x="456" y="164">o</text>
    <text x="464" y="164">r</text>
    <text x="472" y="164">e</text>
    <text x="488" y="164">c</text>
    <text x="496" y="164">o</text>
    <text x="504" y="164">n</text>
    <text x="512" y="164">t</text>
    <text x="520" y="164">a</text>
    <text x="528" y="164">i</text>
    <text x="536" y="164">n</text>
    <text x="552" y="164">o</text>
    <text x="560" y="164">n</text>
    <text x="568" y="164">l</text>
    <text x="576" y="164">y</text>
    <text x="592" y="164">b</text>
    <text x="600" y="164">l</text>
    <text x="608" y="164">a</text>
    <text x="616" y="164">n</text>
    <text x="624" y="164">k</text>
    <text x="640" y="164">s</text>
    <text x="648" y="164">p</text>
    <text x="656" y="164">a</text>
    <text x="664" y="164">c</text>
    <text x="672" y="164">e</text>
    <text x="680" y="164">.</text>
    <text x="16" y="180">3</text>
    <text x="24" y="180">.</text>
    <text x="40" y="180">T</text>
    <text x="48" y="180">h</text>
    <text x="56" y="180">e</text>
    <text x="72" y="180">S</text>
    <text x="80" y="180">V</text>
    <text x="88" y="180">G</text>
    <text x="104" y="180">s</text>
    <text x="112" y="180">p</text>
    <text x="120" y="180">a</text>
    <text x="128" y="180">c</text>
    <text x="136" y="180">e</text>
    <text x="152" y="180">t</text>
    <text x="160" y="180">r</text>
    <text x="168" y="180">a</text>
    <text x="176" y="180">n</text>
    <text x="184" y="180">s</text>
    <text x="192" y="180">f</text>
    <text x="200" y="180">o</text>
    <text x="208" y="180">r</text>
    <text x="216" y="180">m</text>
    <text x="232" y="180">a</text>
    <text x="240" y="180">c</text>
    <text x="248" y="180">c</text>
    <text x="256" y="180">o</text>
    <text x="264" y="180">m</text>
    <text x="272" y="180">m</text>
    <text x="280" y="180">o</text>
    <text x="288" y="180">d</text>
    <text x="296" y="180">a</text>
    <text x="304" y="180">t</text>
    <text x="312" y="180">e</text>
    <text x="320" y="180">s</text>
    <text x="336" y="180">t</text>
    <text x="344" y="180">h</text>
    <text x="352" y="180">e</text>
    <text x="368" y="180">d</text>
    <text x="376" y="180">o</text>
    <text x="384" y="180">u</text>
    <text x="392" y="180">b</text>
    <text x="400" y="180">l</text>
    <text x="408" y="180">e</text>
    <text x="416" y="180">-</text>
    <text x="424" y="180">w</text>
    <text x="432" y="180">i</text>
    <text x="440" y="180">d</text>
    <text x="448" y="180">t</text>
    <text x="456" y="180">h</text>
    <text x="464" y="180">,</text>
    <text x="480" y="180">a</text>
    <text x="488" y="180">l</text>
    <text x="496" y="180">l</text>
    <text x="504" y="180">o</text>
    <text x="512" y="180">w</text>
    <text x="520" y="180">i</text>
    <text x="528" y="180">n</text>
    <text x="536" y="180">g</text>
    <text x="552" y="180">a</text>
    <text x="568" y="180">D</text>
    <text x="576" y="180">o</text>
    <text x="584" y="180">t</text>
    <text x="600" y="180">i</text>
    <text x="608" y="180">n</text>
    <text x="624" y="180">t</text>
    <text x="632" y="180">h</text>
    <text x="640" y="180">e</text>
    <text x="656" y="180">f</text>
    <text x="664" y="180">i</text>
    <text x="672" y="180">r</text>
    <text x="680" y="180">s</text>
    <text x="688" y="180">t</text>
    <text x="704" y="180">.</text>
    <text x="712" y="180">t</text>
    <text x="720" y="180">x</text>
    <text x="728" y="180">t</text>
    <text x="40" y="196">c</text>
    <text x="48" y="196">o</text>
    <text x="56" y="196">l</text>
    <text x="64" y="196">u</text>
    <text x="72" y="196">m</text>
    <text x="80" y="196">n</text>
    <text x="96" y="196">t</text>
    <text x="104" y="196">o</text>
    <text x="120" y="196">e</text>
    <text x="128" y="196">s</text>
    <text x="136" y="196">c</text>
    <text x="144" y="196">a</text>
    <text x="152" y="196">p</text>
    <text x="160" y="196">e</text>
    <text x="176" y="196">c</text>
    <text x="184" y="196">l</text>
    <text x="192" y="196">i</text>
    <text x="200" y="196">p</text>
    <text x="208" y="196">p</text>
    <text x="216" y="196">i</text>
    <text x="224" y="196">n</text>
    <text x="232" y="196">g</text>
    <text x="248" y="196">o</text>
    <text x="256" y="196">f</text>
    <text x="272" y="196">i</text>
    <text x="280" y="196">t</text>
    <text x="288" y="196">s</text>
    <text x="304" y="196">l</text>
    <text x="312" y="196">e</text>
    <text x="320" y="196">f</text>
    <text x="328" y="196">t</text>
    <text x="344" y="196">e</text>
    <text x="352" y="196">d</text>
    <text x="360" y="196">g</text>
    <text x="368" y="196">e</text>
    <text x="376" y="196">.</text>
    <text x="16" y="212">4</text>
    <text x="24" y="212">.</text>
    <text x="40" y="212">X</text>
    <text x="48" y="212">X</text>
    <text x="64" y="212">X</text>
    <text x="72" y="212">X</text>
    <text x="104" y="212">T</text>
    <text x="112" y="212">h</text>
    <text x="120" y="212">e</text>
    <text x="136" y="212">Y</text>
    <text x="144" y="212">-</text>
    <text x="152" y="212">a</text>
    <text x="160" y="212">x</text>
    <text x="168" y="212">i</text>
    <text x="176" y="212">s</text>
    <text x="192" y="212">o</text>
    <text x="200" y="212">f</text>
    <text x="216" y="212">t</text>
    <text x="224" y="212">h</text>
    <text x="232" y="212">e</text>
    <text x="248" y="212">t</text>
    <text x="256" y="212">r</text>
    <text x="264" y="212">a</text>
    <text x="272" y="212">n</text>
    <text x="280" y="212">s</text>
    <text x="288" y="212">l</text>
    <text x="296" y="212">a</text>
    <text x="304" y="212">t</text>
    <text x="312" y="212">i</text>
    <text x="320" y="212">o</text>
    <text x="328" y="212">n</text>
    <text x="344" y="212">t</text>
    <text x="352" y="212">r</text>
    <text x="360" y="212">a</text>
    <text x="368" y="212">n</text>
    <text x="376" y="212">s</text>
    <text x="384" y="212">f</text>
    <text x="392" y="212">o</text>
    <text x="400" y="212">r</text>
    <text x="408" y="212">m</text>
    <text x="424" y="212">i</text>
    <text x="432" y="212">s</text>
    <text x="448" y="212">m</text>
    <text x="456" y="212">o</text>
    <text x="464" y="212">r</text>
    <text x="472" y="212">e</text>
    <text x="488" y="212">t</text>
    <text x="496" y="212">h</text>
    <text x="504" y="212">a</text>
    <text x="512" y="212">n</text>
    <text x="528" y="212">n</text>
    <text x="536" y="212">e</text>
    <text x="544" y="212">c</text>
    <text x="552" y="212">e</text>
    <text x="560" y="212">s</text>
    <text x="568" y="212">s</text>
    <text x="576" y="212">a</text>
    <text x="584" y="212">r</text>
    <text x="592" y="212">y</text>
    <text x="608" y="212">–</text>
    <text x="624" y="212">t</text>
    <text x="632" y="212">h</text>
    <text x="640" y="212">e</text>
    <text x="648" y="212">r</text>
    <text x="656" y="212">e</text>
    <text x="40" y="228">i</text>
    <text x="48" y="228">s</text>
    <text x="64" y="228">a</text>
    <text x="72" y="228">n</text>
    <text x="88" y="228">a</text>
    <text x="96" y="228">l</text>
    <text x="104" y="228">w</text>
    <text x="112" y="228">a</text>
    <text x="120" y="228">y</text>
    <text x="128" y="228">s</text>
    <text x="136" y="228">-</text>
    <text x="144" y="228">b</text>
    <text x="152" y="228">l</text>
    <text x="160" y="228">a</text>
    <text x="168" y="228">n</text>
    <text x="176" y="228">k</text>
    <text x="192" y="228">b</text>
    <text x="200" y="228">a</text>
    <text x="208" y="228">n</text>
    <text x="216" y="228">d</text>
    <text x="232" y="228">a</text>
    <text x="240" y="228">t</text>
    <text x="256" y="228">t</text>
    <text x="264" y="228">h</text>
    <text x="272" y="228">e</text>
    <text x="288" y="228">t</text>
    <text x="296" y="228">o</text>
    <text x="304" y="228">p</text>
    <text x="320" y="228">o</text>
    <text x="328" y="228">f</text>
    <text x="344" y="228">S</text>
    <text x="352" y="228">V</text>
    <text x="360" y="228">G</text>
    <text x="376" y="228">i</text>
    <text x="384" y="228">m</text>
    <text x="392" y="228">a</text>
    <text x="400" y="228">g</text>
    <text x="408" y="228">e</text>
    <text x="416" y="228">.</text>
    <text x="16" y="244">5</text>
    <text x="24" y="244">.</text>
    <text x="40" y="244">T</text>
    <text x="48" y="244">e</text>
    <text x="56" y="244">x</text>
    <text x="64" y="244">t</text>
    <text x="80" y="244">e</text>
    <text x="88" y="244">l</text>
    <text x="96" y="244">e</text>
    <text x="104" y="244">m</text>
    <text x="112" y="244">e</text>
    <text x="120" y="244">n</text>
    <text x="128" y="244">t</text>
    <text x="136" y="244">s</text>
    <text x="152" y="244">&lt;</text>
    <text x="160" y="244">t</text>
    <text x="168" y="244">e</text>
    <text x="176" y="244">x</text>
    <text x="184" y="244">t</text>
    <text x="192" y="244">&gt;</text>
    <text x="208" y="244">g</text>
    <text x="216" y="244">e</text>
    <text x="224" y="244">t</text>
    <text x="240" y="244">a</text>
    <text x="248" y="244">n</text>
    <text x="264" y="244">i</text>
    <text x="272" y="244">n</text>
    <text x="280" y="244">l</text>
    <text x="288" y="244">i</text>
    <text x="296" y="244">n</text>
    <text x="304" y="244">e</text>
    <text x="320" y="244">Y</text>
    <text x="328" y="244">-</text>
    <text x="336" y="244">o</text>
    <text x="344" y="244">f</text>
    <text x="352" y="244">f</text>
    <text x="360" y="244">s</text>
    <text x="368" y="244">e</text>
    <text x="376" y="244">t</text>
    <text x="392" y="244">o</text>
    <text x="400" y="244">f</text>
    <text x="416" y="244">+</text>
    <text x="424" y="244">4</text>
    <text x="440" y="244">–</text>
    <text x="456" y="244">v</text>
    <text x="464" y="244">i</text>
    <text x="472" y="244">s</text>
    <text x="480" y="244">u</text>
    <text x="488" y="244">a</text>
    <text x="496" y="244">l</text>
    <text x="504" y="244">l</text>
    <text x="512" y="244">y</text>
    <text x="528" y="244">n</text>
    <text x="536" y="244">e</text>
    <text x="544" y="244">c</text>
    <text x="552" y="244">e</text>
    <text x="560" y="244">s</text>
    <text x="568" y="244">s</text>
    <text x="576" y="244">a</text>
    <text x="584" y="244">r</text>
    <text x="592" y="244">y</text>
    <text x="608" y="244">f</text>
    <text x="616" y="244">o</text>
    <text x="624" y="244">r</text>
    <text x="640" y="244">Y</text>
    <text x="648" y="244">-</text>
    <text x="656" y="244">a</text>
    <text x="664" y="244">l</text>
    <text x="672" y="244">i</text>
    <text x="680" y="244">g</text>
    <text x="688" y="244">n</text>
    <text x="696" y="244">m</text>
    <text x="704" y="244">e</text>
    <text x="712" y="244">n</text>
    <text x="720" y="244">t</text>
    <text x="40" y="260">w</text>
    <text x="48" y="260">i</text>
    <text x="56" y="260">t</text>
    <text x="64" y="260">h</text>
    <text x="80" y="260">D</text>
    <text x="88" y="260">o</text>
    <text x="96" y="260">t</text>
    <text x="104" y="260">s</text>
    <text x="120" y="260">t</text>
    <text x="128" y="260">o</text>
    <text x="144" y="260">l</text>
    <text x="152" y="260">e</text>
    <text x="160" y="260">f</text>
    <text x="168" y="260">t</text>
    <text x="184" y="260">o</text>
    <text x="192" y="260">r</text>
    <text x="208" y="260">r</text>
    <text x="216" y="260">i</text>
    <text x="224" y="260">g</text>
    <text x="232" y="260">h</text>
    <text x="240" y="260">t</text>
    <text x="256" y="260">–</text>
    <text x="272" y="260">B</text>
    <text x="280" y="260">u</text>
    <text x="288" y="260">t</text>
    <text x="304" y="260">w</text>
    <text x="312" y="260">h</text>
    <text x="320" y="260">y</text>
    <text x="336" y="260">s</text>
    <text x="344" y="260">o</text>
    <text x="352" y="260">?</text>
    <text x="16" y="276">6</text>
    <text x="24" y="276">.</text>
    <text x="40" y="276">X</text>
    <text x="48" y="276">y</text>
    <text x="56" y="276">I</text>
    <text x="64" y="276">n</text>
    <text x="72" y="276">d</text>
    <text x="80" y="276">e</text>
    <text x="88" y="276">x</text>
    <text x="104" y="276">m</text>
    <text x="112" y="276">e</text>
    <text x="120" y="276">t</text>
    <text x="128" y="276">h</text>
    <text x="136" y="276">o</text>
    <text x="144" y="276">d</text>
    <text x="160" y="276">A</text>
    <text x="168" y="276">s</text>
    <text x="176" y="276">P</text>
    <text x="184" y="276">i</text>
    <text x="192" y="276">x</text>
    <text x="200" y="276">e</text>
    <text x="208" y="276">l</text>
    <text x="216" y="276">(</text>
    <text x="224" y="276">)</text>
    <text x="240" y="276">P</text>
    <text x="248" y="276">i</text>
    <text x="256" y="276">x</text>
    <text x="264" y="276">e</text>
    <text x="272" y="276">l</text>
    <text x="288" y="276">r</text>
    <text x="296" y="276">e</text>
    <text x="304" y="276">t</text>
    <text x="312" y="276">u</text>
    <text x="320" y="276">r</text>
    <text x="328" y="276">n</text>
    <text x="336" y="276">s</text>
    <text x="352" y="276">t</text>
    <text x="360" y="276">h</text>
    <text x="368" y="276">e</text>
    <text x="384" y="276">S</text>
    <text x="392" y="276">V</text>
    <text x="400" y="276">G</text>
    <text x="416" y="276">'</text>
    <text x="424" y="276">p</text>
    <text x="432" y="276">x</text>
    <text x="440" y="276">'</text>
    <text x="456" y="276">c</text>
    <text x="464" y="276">o</text>
    <text x="472" y="276">o</text>
    <text x="480" y="276">r</text>
    <text x="488" y="276">d</text>
    <text x="496" y="276">i</text>
    <text x="504" y="276">n</text>
    <text x="512" y="276">a</text>
    <text x="520" y="276">t</text>
    <text x="528" y="276">e</text>
    <text x="544" y="276">o</text>
    <text x="552" y="276">f</text>
    <text x="568" y="276">t</text>
    <text x="576" y="276">h</text>
    <text x="584" y="276">e</text>
    <text x="600" y="276">c</text>
    <text x="608" y="276">e</text>
    <text x="616" y="276">l</text>
    <text x="624" y="276">l</text>
    <text x="40" y="292">c</text>
    <text x="48" y="292">e</text>
    <text x="56" y="292">n</text>
    <text x="64" y="292">t</text>
    <text x="72" y="292">e</text>
    <text x="80" y="292">r</text>
    <text x="96" y="292">(</text>
    <text x="104" y="292">w</text>
    <text x="112" y="292">i</text>
    <text x="120" y="292">t</text>
    <text x="128" y="292">h</text>
    <text x="136" y="292">i</text>
    <text x="144" y="292">n</text>
    <text x="160" y="292">t</text>
    <text x="168" y="292">h</text>
    <text x="176" y="292">e</text>
    <text x="192" y="292">t</text>
    <text x="200" y="292">r</text>
    <text x="208" y="292">a</text>
    <text x="216" y="292">n</text>
    <text x="224" y="292">s</text>
    <text x="232" y="292">f</text>
    <text x="240" y="292">o</text>
    <text x="248" y="292">r</text>
    <text x="256" y="292">m</text>
    <text x="264" y="292">e</text>
    <text x="272" y="292">d</text>
    <text x="288" y="292">s</text>
    <text x="296" y="292">p</text>
    <text x="304" y="292">a</text>
    <text x="312" y="292">c</text>
    <text x="320" y="292">e</text>
    <text x="328" y="292">)</text>
    <text x="80" y="324">m</text>
    <text x="88" y="324">i</text>
    <text x="96" y="324">n</text>
    <text x="104" y="324">i</text>
    <text x="112" y="324">m</text>
    <text x="120" y="324">a</text>
    <text x="128" y="324">l</text>
    <text x="136" y="324">-</text>
    <text x="144" y="324">a</text>
    <text x="152" y="324">r</text>
    <text x="160" y="324">e</text>
    <text x="168" y="324">a</text>
    <text x="184" y="324">r</text>
    <text x="192" y="324">e</text>
    <text x="200" y="324">c</text>
    <text x="208" y="324">t</text>
    <text x="216" y="324">a</text>
    <text x="224" y="324">n</text>
    <text x="232" y="324">g</text>
    <text x="240" y="324">l</text>
    <text x="248" y="324">e</text>
    <text x="264" y="324">–</text>
    <text x="280" y="324">n</text>
    <text x="288" y="324">o</text>
    <text x="296" y="324">t</text>
    <text x="304" y="324">e</text>
    <text x="320" y="324">t</text>
    <text x="328" y="324">h</text>
    <text x="336" y="324">a</text>
    <text x="344" y="324">t</text>
    <text x="360" y="324">n</text>
    <text x="368" y="324">o</text>
    <text x="384" y="324">"</text>
    <text x="392" y="324">|</text>
    <text x="400" y="324">"</text>
    <text x="416" y="324">c</text>
    <text x="424" y="324">h</text>
    <text x="432" y="324">a</text>
    <text x="440" y="324">r</text>
    <text x="448" y="324">a</text>
    <text x="456" y="324">c</text>
    <text x="464" y="324">t</text>
    <text x="472" y="324">e</text>
    <text x="480" y="324">r</text>
    <text x="488" y="324">s</text>
    <text x="504" y="324">a</text>
    <text x="512" y="324">r</text>
    <text x="520" y="324">e</text>
    <text x="536" y="324">u</text>
    <text x="544" y="324">s</text>
    <text x="552" y="324">e</text>
    <text x="560" y="324">d</text>
    <text x="48" y="372">m</text>
    <text x="56" y="372">i</text>
    <text x="64" y="372">n</text>
    <text x="72" y="372">i</text>
    <text x="80" y="372">m</text>
    <text x="88" y="372">a</text>
    <text x="96" y="372">l</text>
    <text x="104" y="372">-</text>
    <text x="112" y="372">a</text>
    <text x="120" y="372">r</text>
    <text x="128" y="372">e</text>
    <text x="136" y="372">a</text>
    <text x="152" y="372">r</text>
    <text x="160" y="372">e</text>
    <text x="168" y="372">c</text>
    <text x="176" y="372">t</text>
    <text x="184" y="372">a</text>
    <text x="192" y="372">n</text>
    <text x="200" y="372">g</text>
    <text x="208" y="372">l</text>
    <text x="216" y="372">e</text>
    <text x="232" y="372">w</text>
    <text x="240" y="372">i</text>
    <text x="248" y="372">t</text>
    <text x="256" y="372">h</text>
    <text x="272" y="372">c</text>
    <text x="280" y="372">i</text>
    <text x="288" y="372">r</text>
    <text x="296" y="372">c</text>
    <text x="304" y="372">l</text>
    <text x="312" y="372">e</text>
    <text x="320" y="372">s</text>
    <text x="336" y="372">a</text>
    <text x="344" y="372">t</text>
    <text x="360" y="372">c</text>
    <text x="368" y="372">o</text>
    <text x="376" y="372">r</text>
    <text x="384" y="372">n</text>
    <text x="392" y="372">e</text>
    <text x="400" y="372">r</text>
    <text x="408" y="372">s</text>
</g>
</g>
</svg>
