<svg xmlns="http://www.w3.org/2000/svg" version="1.1"
    width="296" height="58"
    viewBox="0 0 296 58">
  <style type="text/css" source-text-origin="source-independent defaults: shared by ASCII and UTF-8">
    svg {
        color-scheme: light dark; /* this becomes necessary if not inherited from parent elements */
        font-family: monospace;
        font-size: 15px;
    }
    text {
        stroke: none;
        text-anchor: middle;
    }
    .path {
        fill: none;
    }
    circle.filled {
        fill: inherit;
    }
    circle.hollow {
         fill: none;
    }
    svg {
        color: #212;  /* set value of 'currentColor' */
    }
    @media (prefers-color-scheme: dark) {
        svg {
            color: #FEF;  /* set value of 'currentColor' */
        }
    }
    svg {
        fill: currentColor;
        stroke: currentColor;
    }

    svg {
        background-color: #FEF
    }
    text {
        fill: #900
    }
    @media (prefers-color-scheme: dark) {
        svg {
            background-color: #212
        }
        text {
            fill: #FBB
        }
    }
  </style>

<g transform='translate(8,12)'>
  <g id='lines'>
  </g>
  <g id='triangles'>
  </g>
  <g id='roundedCorners'>
  </g>
  <g id='circles'>
  </g>
  <g id='bridges'>
  </g>
  <g id='text'>
    <text x="0" y="4">S</text>
    <text x="8" y="4">p</text>
    <text x="16" y="4">e</text>
    <text x="24" y="4">c</text>
    <text x="32" y="4">i</text>
    <text x="40" y="4">a</text>
    <text x="48" y="4">l</text>
    <text x="64" y="4">c</text>
    <text x="72" y="4">a</text>
    <text x="80" y="4">s</text>
    <text x="88" y="4">e</text>
    <text x="96" y="4">s</text>
    <text x="112" y="4">s</text>
    <text x="120" y="4">u</text>
    <text x="128" y="4">p</text>
    <text x="136" y="4">p</text>
    <text x="144" y="4">o</text>
    <text x="152" y="4">r</text>
    <text x="160" y="4">t</text>
    <text x="168" y="4">e</text>
    <text x="176" y="4">d</text>
    <text x="192" y="4">b</text>
    <text x="200" y="4">y</text>
    <text x="216" y="4">M</text>
    <text x="224" y="4">a</text>
    <text x="232" y="4">r</text>
    <text x="240" y="4">k</text>
    <text x="248" y="4">d</text>
    <text x="256" y="4">e</text>
    <text x="264" y="4">e</text>
    <text x="272" y="4">p</text>
    <text x="280" y="4">:</text>
<rect x="-4" y="24" width="8" height="16" fill="currentColor"></rect>
<rect x="12" y="24" width="8" height="16" fill="rgb(64,64,64)"></rect>
<rect x="28" y="24" width="8" height="16" fill="rgb(128,128,128)"></rect>
<rect x="44" y="24" width="8" height="16" fill="rgb(191,191,191)"></rect>
</g>
</g>
</svg>
