<svg xmlns="http://www.w3.org/2000/svg" version="1.1"
    width="240" height="202"
    viewBox="0 0 240 202">
  <style type="text/css" source-text-origin="source-independent defaults: shared by ASCII and UTF-8">
    svg {
        color-scheme: light dark; /* this becomes necessary if not inherited from parent elements */
        font-family: monospace;
        font-size: 15px;
    }
    text {
        stroke: none;
        text-anchor: middle;
    }
    .path {
        fill: none;
    }
    circle.filled {
        fill: inherit;
    }
    circle.hollow {
         fill: none;
    }
    svg {
        color: #212;  /* set value of 'currentColor' */
    }
    @media (prefers-color-scheme: dark) {
        svg {
            color: #FEF;  /* set value of 'currentColor' */
        }
    }
    svg {
        fill: currentColor;
        stroke: currentColor;
    }

    svg {
        background-color: #FEF
    }
    text {
        fill: #900
    }
    @media (prefers-color-scheme: dark) {
        svg {
            background-color: #212
        }
        text {
            fill: #FBB
        }
    }
  </style>

<g transform='translate(8,12)'>
  <g id='lines'>
    <polyline class="path" points="0,24 16,24"/>
    <polyline class="path" points="0,40 16,40"/>
    <polyline class="path" points="0,120 16,120"/>
    <polyline class="path" points="0,152 16,152"/>
    <polyline class="path" points="0,24 0,40"/>
    <polyline class="path" points="0,128 0,144"/>
    <polyline class="path" points="16,24 16,40"/>
    <polyline class="path" points="16,128 16,144"/>
    <polyline class="path" points="0,24 0,32"/>
    <polyline class="path" points="0,120 0,128"/>
    <polyline class="path" points="0,144 0,152"/>
    <polyline class="path" points="16,24 16,32"/>
    <polyline class="path" points="16,120 16,128"/>
    <polyline class="path" points="16,144 16,152"/>
  </g>
  <g id='triangles'>
  </g>
  <g id='roundedCorners'>
  </g>
  <g id='circles'>
  </g>
  <g id='bridges'>
  </g>
  <g id='text'>
    <text x="0" y="68">f</text>
    <text x="8" y="68">o</text>
    <text x="16" y="68">u</text>
    <text x="24" y="68">r</text>
    <text x="40" y="68">h</text>
    <text x="48" y="68">a</text>
    <text x="56" y="68">l</text>
    <text x="64" y="68">f</text>
    <text x="72" y="68">-</text>
    <text x="80" y="68">c</text>
    <text x="88" y="68">e</text>
    <text x="96" y="68">l</text>
    <text x="104" y="68">l</text>
    <text x="120" y="68">v</text>
    <text x="128" y="68">e</text>
    <text x="136" y="68">r</text>
    <text x="144" y="68">t</text>
    <text x="152" y="68">i</text>
    <text x="160" y="68">c</text>
    <text x="168" y="68">a</text>
    <text x="176" y="68">l</text>
    <text x="192" y="68">l</text>
    <text x="200" y="68">i</text>
    <text x="208" y="68">n</text>
    <text x="216" y="68">e</text>
    <text x="224" y="68">s</text>
    <text x="0" y="180">s</text>
    <text x="8" y="180">i</text>
    <text x="16" y="180">x</text>
    <text x="32" y="180">v</text>
    <text x="40" y="180">e</text>
    <text x="48" y="180">r</text>
    <text x="56" y="180">t</text>
    <text x="64" y="180">i</text>
    <text x="72" y="180">c</text>
    <text x="80" y="180">a</text>
    <text x="88" y="180">l</text>
    <text x="104" y="180">l</text>
    <text x="112" y="180">i</text>
    <text x="120" y="180">n</text>
    <text x="128" y="180">e</text>
    <text x="136" y="180">s</text>
</g>
</g>
</svg>
