<svg xmlns="http://www.w3.org/2000/svg" version="1.1"
    width="760" height="282"
    viewBox="0 0 760 282">
  <style type="text/css" source-text-origin="source-independent defaults: shared by ASCII and UTF-8">
    svg {
        color-scheme: light dark; /* this becomes necessary if not inherited from parent elements */
        font-family: monospace;
        font-size: 15px;
    }
    text {
        stroke: none;
        text-anchor: middle;
    }
    .path {
        fill: none;
    }
    circle.filled {
        fill: inherit;
    }
    circle.hollow {
         fill: none;
    }
    svg {
        color: #212;  /* set value of 'currentColor' */
    }
    @media (prefers-color-scheme: dark) {
        svg {
            color: #FEF;  /* set value of 'currentColor' */
        }
    }
    svg {
        fill: currentColor;
        stroke: currentColor;
    }

    svg {
        background-color: #FEF
    }
    text {
        fill: #900
    }
    @media (prefers-color-scheme: dark) {
        svg {
            background-color: #212
        }
        text {
            fill: #FBB
        }
    }
  </style>

<g transform='translate(8,12)'>
  <g id='lines'>
    <polyline class="path" points="552,0 608,0"/>
    <polyline class="path" points="288,16 296,16"/>
    <polyline class="path" points="256,32 272,32"/>
    <polyline class="path" points="344,32 352,32"/>
    <polyline class="path" points="552,32 608,32"/>
    <polyline class="path" points="376,48 528,48"/>
    <polyline class="path" points="256,64 352,64"/>
    <polyline class="path" points="552,80 608,80"/>
    <polyline class="path" points="80,112 280,112"/>
    <polyline class="path" points="336,112 448,112"/>
    <polyline class="path" points="568,144 624,144"/>
    <polyline class="path" points="688,144 744,144"/>
    <polyline class="path" points="40,160 112,160"/>
    <polyline class="path" points="240,160 312,160"/>
    <polyline class="path" points="432,160 464,160"/>
    <polyline class="path" points="120,176 232,176"/>
    <polyline class="path" points="320,176 408,176"/>
    <polyline class="path" points="552,176 608,176"/>
    <polyline class="path" points="672,176 728,176"/>
    <polyline class="path" points="632,192 664,192"/>
    <polyline class="path" points="40,208 112,208"/>
    <polyline class="path" points="240,208 312,208"/>
    <polyline class="path" points="24,240 128,240"/>
    <polyline class="path" points="224,240 328,240"/>
    <polyline class="path" points="432,240 464,240"/>
    <polyline class="path" points="552,240 608,240"/>
    <polyline class="path" points="672,240 728,240"/>
    <polyline class="path" points="64,232 88,232"/>
    <polyline class="path" points="264,232 288,232"/>
    <polyline class="path" points="40,160 40,208"/>
    <polyline class="path" points="80,112 80,144"/>
    <polyline class="path" points="112,160 112,208"/>
    <polyline class="path" points="240,160 240,208"/>
    <polyline class="path" points="280,80 280,112"/>
    <polyline class="path" points="312,160 312,208"/>
    <polyline class="path" points="336,80 336,112"/>
    <polyline class="path" points="416,176 416,224"/>
    <polyline class="path" points="448,112 448,144"/>
    <polyline class="path" points="480,176 480,224"/>
    <polyline class="path" points="536,16 536,64"/>
    <polyline class="path" points="552,176 552,240"/>
    <polyline class="path" points="584,96 584,128"/>
    <polyline class="path" points="608,176 608,192"/>
    <polyline class="path" points="608,192 608,208"/>
    <polyline class="path" points="608,208 608,224"/>
    <polyline class="path" points="608,224 608,240"/>
    <polyline class="path" points="624,16 624,64"/>
    <polyline class="path" points="624,144 624,208"/>
    <polyline class="path" points="672,176 672,240"/>
    <polyline class="path" points="728,176 728,192"/>
    <polyline class="path" points="728,192 728,208"/>
    <polyline class="path" points="728,208 728,224"/>
    <polyline class="path" points="728,224 728,240"/>
    <polyline class="path" points="744,144 744,208"/>
    <polyline class="path" points="24,240 40,208"/>
    <polyline class="path" points="36,232 44,216"/>
    <polyline class="path" points="44,232 52,216"/>
    <polyline class="path" points="224,240 240,208"/>
    <polyline class="path" points="236,232 244,216"/>
    <polyline class="path" points="244,232 252,216"/>
    <polyline class="path" points="552,176 568,144"/>
    <polyline class="path" points="608,176 624,144"/>
    <polyline class="path" points="608,192 624,160"/>
    <polyline class="path" points="608,208 624,176"/>
    <polyline class="path" points="608,224 624,192"/>
    <polyline class="path" points="608,240 624,208"/>
    <polyline class="path" points="672,176 688,144"/>
    <polyline class="path" points="728,176 744,144"/>
    <polyline class="path" points="728,192 744,160"/>
    <polyline class="path" points="728,208 744,176"/>
    <polyline class="path" points="728,224 744,192"/>
    <polyline class="path" points="728,240 744,208"/>
    <polyline class="path" points="100,216 108,232"/>
    <polyline class="path" points="108,216 116,232"/>
    <polyline class="path" points="112,208 128,240"/>
    <polyline class="path" points="300,216 308,232"/>
    <polyline class="path" points="308,216 316,232"/>
    <polyline class="path" points="312,208 328,240"/>
  </g>
  <g id='triangles'>
    <polyline class="path" points="80,144 80,152"/>
    <polygon points="96,144 84,138.4 84,149.6" transform="rotate(90, 80, 144)" class="arrowhead"></polygon>
    <polygon points="128,176 116,170.4 116,181.6" transform="rotate(180, 120, 176)" class="arrowhead"></polygon>
    <polygon points="240,176 228,170.4 228,181.6" transform="rotate(0, 232, 176)" class="arrowhead"></polygon>
    <polyline class="path" points="280,72 280,80"/>
    <polygon points="296,80 284,74.4 284,85.6" transform="rotate(270, 280, 80)" class="arrowhead"></polygon>
    <polygon points="328,176 316,170.4 316,181.6" transform="rotate(180, 320, 176)" class="arrowhead"></polygon>
    <polyline class="path" points="336,72 336,80"/>
    <polygon points="352,80 340,74.4 340,85.6" transform="rotate(270, 336, 80)" class="arrowhead"></polygon>
    <polygon points="384,48 372,42.4 372,53.6" transform="rotate(180, 376, 48)" class="arrowhead"></polygon>
    <polygon points="416,176 404,170.4 404,181.6" transform="rotate(0, 408, 176)" class="arrowhead"></polygon>
    <polyline class="path" points="448,144 448,152"/>
    <polygon points="464,144 452,138.4 452,149.6" transform="rotate(90, 448, 144)" class="arrowhead"></polygon>
    <polygon points="536,48 524,42.4 524,53.6" transform="rotate(0, 528, 48)" class="arrowhead"></polygon>
    <polyline class="path" points="584,88 584,96"/>
    <polygon points="600,96 588,90.4 588,101.6" transform="rotate(270, 584, 96)" class="arrowhead"></polygon>
    <polyline class="path" points="584,128 584,136"/>
    <polygon points="600,128 588,122.4 588,133.6" transform="rotate(90, 584, 128)" class="arrowhead"></polygon>
    <polygon points="640,192 628,186.4 628,197.6" transform="rotate(180, 632, 192)" class="arrowhead"></polygon>
    <polygon points="672,192 660,186.4 660,197.6" transform="rotate(0, 664, 192)" class="arrowhead"></polygon>
  </g>
  <g id='roundedCorners'>
    <path class="path" d="M 312,0 A 16,16 0 0,0 296,16"></path>
    <path class="path" d="M 312,0 A 16,16 0 0,1 328,16"></path>
    <path class="path" d="M 552,0 A 16,16 0 0,0 536,16"></path>
    <path class="path" d="M 608,0 A 16,16 0 0,1 624,16"></path>
    <path class="path" d="M 288,16 A 16,16 0 0,0 272,32"></path>
    <path class="path" d="M 256,32 A 16,16 0 0,0 240,48"></path>
    <path class="path" d="M 328,16 A 16,16 0 0,0 344,32"></path>
    <path class="path" d="M 352,32 A 16,16 0 0,1 368,48"></path>
    <path class="path" d="M 536,16 A 16,16 0 0,0 552,32"></path>
    <path class="path" d="M 624,16 A 16,16 0 0,1 608,32"></path>
    <path class="path" d="M 240,48 A 16,16 0 0,0 256,64"></path>
    <path class="path" d="M 368,48 A 16,16 0 0,1 352,64"></path>
    <path class="path" d="M 536,64 A 16,16 0 0,0 552,80"></path>
    <path class="path" d="M 624,64 A 16,16 0 0,1 608,80"></path>
    <path class="path" d="M 432,160 A 16,16 0 0,0 416,176"></path>
    <path class="path" d="M 464,160 A 16,16 0 0,1 480,176"></path>
    <path class="path" d="M 416,224 A 16,16 0 0,0 432,240"></path>
    <path class="path" d="M 480,224 A 16,16 0 0,1 464,240"></path>
  </g>
  <g id='circles'>
    <circle cx="448" cy="224" r="6" class="hollow"></circle>
  </g>
  <g id='bridges'>
  </g>
  <g id='text'>
    <text x="264" y="52">S</text>
    <text x="272" y="52">e</text>
    <text x="280" y="52">r</text>
    <text x="288" y="52">v</text>
    <text x="296" y="52">e</text>
    <text x="304" y="52">r</text>
    <text x="320" y="52">C</text>
    <text x="328" y="52">l</text>
    <text x="336" y="52">o</text>
    <text x="344" y="52">u</text>
    <text x="352" y="52">d</text>
    <text x="552" y="52">D</text>
    <text x="560" y="52">a</text>
    <text x="568" y="52">t</text>
    <text x="576" y="52">a</text>
    <text x="584" y="52">b</text>
    <text x="592" y="52">a</text>
    <text x="600" y="52">s</text>
    <text x="608" y="52">e</text>
    <text x="160" y="100">I</text>
    <text x="168" y="100">n</text>
    <text x="176" y="100">t</text>
    <text x="184" y="100">e</text>
    <text x="192" y="100">r</text>
    <text x="200" y="100">n</text>
    <text x="208" y="100">e</text>
    <text x="216" y="100">t</text>
    <text x="168" y="164">W</text>
    <text x="176" y="164">i</text>
    <text x="184" y="164">F</text>
    <text x="192" y="164">i</text>
    <text x="336" y="164">B</text>
    <text x="344" y="164">l</text>
    <text x="352" y="164">u</text>
    <text x="360" y="164">e</text>
    <text x="368" y="164">t</text>
    <text x="376" y="164">o</text>
    <text x="384" y="164">o</text>
    <text x="392" y="164">t</text>
    <text x="400" y="164">h</text>
    <text x="576" y="164">#</text>
    <text x="600" y="164">#</text>
    <text x="696" y="164">#</text>
    <text x="720" y="164">#</text>
    <text x="640" y="180">L</text>
    <text x="648" y="180">A</text>
    <text x="656" y="180">N</text>
    <text x="48" y="196">W</text>
    <text x="56" y="196">i</text>
    <text x="64" y="196">n</text>
    <text x="72" y="196">d</text>
    <text x="80" y="196">o</text>
    <text x="88" y="196">w</text>
    <text x="96" y="196">s</text>
    <text x="264" y="196">O</text>
    <text x="272" y="196">S</text>
    <text x="288" y="196">X</text>
    <text x="440" y="196">i</text>
    <text x="448" y="196">O</text>
    <text x="456" y="196">S</text>
    <text x="560" y="212">U</text>
    <text x="568" y="212">b</text>
    <text x="576" y="212">u</text>
    <text x="584" y="212">n</text>
    <text x="592" y="212">t</text>
    <text x="600" y="212">u</text>
    <text x="680" y="212">U</text>
    <text x="688" y="212">b</text>
    <text x="696" y="212">u</text>
    <text x="704" y="212">n</text>
    <text x="712" y="212">t</text>
    <text x="720" y="212">u</text>
    <text x="48" y="260">L</text>
    <text x="56" y="260">a</text>
    <text x="64" y="260">p</text>
    <text x="72" y="260">t</text>
    <text x="80" y="260">o</text>
    <text x="88" y="260">p</text>
    <text x="104" y="260">1</text>
    <text x="248" y="260">L</text>
    <text x="256" y="260">a</text>
    <text x="264" y="260">p</text>
    <text x="272" y="260">t</text>
    <text x="280" y="260">o</text>
    <text x="288" y="260">p</text>
    <text x="304" y="260">2</text>
    <text x="424" y="260">T</text>
    <text x="432" y="260">a</text>
    <text x="440" y="260">b</text>
    <text x="448" y="260">l</text>
    <text x="456" y="260">e</text>
    <text x="464" y="260">t</text>
    <text x="480" y="260">1</text>
    <text x="560" y="260">D</text>
    <text x="568" y="260">e</text>
    <text x="576" y="260">d</text>
    <text x="584" y="260">i</text>
    <text x="592" y="260">c</text>
    <text x="600" y="260">a</text>
    <text x="608" y="260">t</text>
    <text x="616" y="260">e</text>
    <text x="624" y="260">d</text>
    <text x="640" y="260">S</text>
    <text x="648" y="260">e</text>
    <text x="656" y="260">r</text>
    <text x="664" y="260">v</text>
    <text x="672" y="260">e</text>
    <text x="680" y="260">r</text>
    <text x="696" y="260">R</text>
    <text x="704" y="260">a</text>
    <text x="712" y="260">c</text>
    <text x="720" y="260">k</text>
</g>
</g>
</svg>
