<svg xmlns="http://www.w3.org/2000/svg" version="1.1"
    width="72" height="154"
    viewBox="0 0 72 154">
  <style type="text/css" source-text-origin="source-independent defaults: shared by ASCII and UTF-8">
    svg {
        color-scheme: light dark; /* this becomes necessary if not inherited from parent elements */
        font-family: monospace;
        font-size: 15px;
    }
    polyline, path {
        fill: none;
    }

    text {
        stroke: none;
        text-anchor: middle;
    }

    circle.filled {
        fill: inherit;
    }
    circle.hollow {
         fill: none;
    }
    svg {
        fill: currentColor; stroke: currentColor;
        color: #212;  /* set value of 'currentColor' */
    }
    @media (prefers-color-scheme: dark) {
        svg {
            color: #FEF;  /* set value of 'currentColor' */
        }
    }

    svg {
        background-color: #FEF
    }
    text {
        color: #900
    }
    @media (prefers-color-scheme: dark) {
        svg {
            background-color: #212
        }
        text {
            color: #FBB
        }
    }
  </style>

<g transform='translate(8,12)'>
  <g id='lines'>
    <polyline class="path" points="32,0 40,0"/>
    <polyline class="path" points="32,64 40,64"/>
    <polyline class="path" points="32,96 40,96"/>
    <polyline class="path" points="32,128 40,128"/>
  </g>
  <g id='triangles'>
  </g>
  <g id='roundedCorners'>
    <path class="path" d="M 32,0 A 16,16 0 0,1 48,16"></path>
    <path class="path" d="M 48,48 A 16,16 0 0,1 32,64"></path>
    <path class="path" d="M 32,96 A 16,16 0 0,0 16,112"></path>
    <path class="path" d="M 32,96 A 16,16 0 0,1 48,112"></path>
    <path class="path" d="M 16,112 A 16,16 0 0,0 32,128"></path>
    <path class="path" d="M 48,112 A 16,16 0 0,1 32,128"></path>
  </g>
  <g id='circles'>
  </g>
  <g id='bridges'>
  </g>
  <g id='text'>
</g>
</g>
</svg>
