<svg xmlns="http://www.w3.org/2000/svg" version="1.1"
    width="552" height="554"
    viewBox="0 0 552 554">
  <style type="text/css" source-text-origin="source-independent defaults: shared by ASCII and UTF-8">
    svg {
        color-scheme: light dark; /* this becomes necessary if not inherited from parent elements */
        font-family: monospace;
        font-size: 15px;
    }
    polyline, path {
        fill: none;
    }

    text {
        stroke: none;
        text-anchor: middle;
    }

    circle.filled {
        fill: inherit;
    }
    circle.hollow {
         fill: none;
    }
    svg {
        fill: currentColor; stroke: currentColor;
        color: #212;  /* set value of 'currentColor' */
    }
    @media (prefers-color-scheme: dark) {
        svg {
            color: #FEF;  /* set value of 'currentColor' */
        }
    }

    svg {
        background-color: #FEF
    }
    text {
        color: #900
    }
    @media (prefers-color-scheme: dark) {
        svg {
            background-color: #212
        }
        text {
            color: #FBB
        }
    }
  </style>

<g transform='translate(8,12)'>
  <g id='lines-vertical'>
    <polyline class="path" points="8,16 8,176"/>
    <polyline class="path" points="40,144 40,176"/>
    <polyline class="path" points="56,16 56,56"/>
    <polyline class="path" points="56,160 56,176"/>
    <polyline class="path" points="80,452 80,472"/>
    <polyline class="path" points="80,472 80,488"/>
    <polyline class="path" points="80,488 80,508"/>
    <polyline class="path" points="136,16 136,144"/>
    <polyline class="path" points="200,16 200,176"/>
    <polyline class="path" points="216,120 216,168"/>
    <polyline class="path" points="224,104 224,136"/>
    <polyline class="path" points="224,136 224,152"/>
    <polyline class="path" points="224,152 224,184"/>
    <polyline class="path" points="232,468 232,492"/>
    <polyline class="path" points="240,264 240,296"/>
    <polyline class="path" points="240,296 240,312"/>
    <polyline class="path" points="240,312 240,344"/>
    <polyline class="path" points="256,100 256,124"/>
    <polyline class="path" points="288,80 288,128"/>
    <polyline class="path" points="392,280 392,328"/>
  </g>
  <g id='lines-horizontal'>
    <polyline class="path" points="8,16 200,16"/>
    <polyline class="path" points="200,48 262,48"/>
    <polyline class="path" points="210,80 220,80"/>
    <polyline class="path" points="220,80 228,80"/>
    <polyline class="path" points="228,80 236,80"/>
    <polyline class="path" points="236,80 244,80"/>
    <polyline class="path" points="244,80 252,80"/>
    <polyline class="path" points="252,80 260,80"/>
    <polyline class="path" points="260,80 268,80"/>
    <polyline class="path" points="268,80 276,80"/>
    <polyline class="path" points="276,80 284,80"/>
    <polyline class="path" points="284,80 288,80"/>
    <polyline class="path" points="200,96 252,96"/>
    <polyline class="path" points="260,128 288,128"/>
    <polyline class="path" points="8,144 224,144"/>
    <polyline class="path" points="8,160 56,160"/>
    <polyline class="path" points="8,176 200,176"/>
    <polyline class="path" points="218,304 228,304"/>
    <polyline class="path" points="228,304 236,304"/>
    <polyline class="path" points="236,304 244,304"/>
    <polyline class="path" points="244,304 252,304"/>
    <polyline class="path" points="252,304 262,304"/>
    <polyline class="path" points="378,304 388,304"/>
    <polyline class="path" points="388,304 396,304"/>
    <polyline class="path" points="396,304 406,304"/>
    <polyline class="path" points="60,480 68,480"/>
    <polyline class="path" points="68,480 76,480"/>
    <polyline class="path" points="76,480 84,480"/>
    <polyline class="path" points="84,480 92,480"/>
    <polyline class="path" points="92,480 100,480"/>
    <polyline class="path" points="220,480 228,480"/>
    <polyline class="path" points="228,480 236,480"/>
    <polyline class="path" points="236,480 244,480"/>
  </g>
  <g id='triangles'>
    <polygon points="63,48 58.5,45.9 58.5,50.1" transform="rotate(90, 56, 48)" class="arrowhead"></polygon>
    <polygon points="211,80 206.5,77.9 206.5,82.1" transform="rotate(180, 208, 80)" class="arrowhead"></polygon>
    <polygon points="223,128 218.5,125.9 218.5,130.1" transform="rotate(270, 216, 128)" class="arrowhead"></polygon>
    <polygon points="223,160 218.5,157.9 218.5,162.1" transform="rotate(90, 216, 160)" class="arrowhead"></polygon>
    <polygon points="219,304 214.5,301.9 214.5,306.1" transform="rotate(180, 216, 304)" class="arrowhead"></polygon>
    <polygon points="231,112 226.5,109.9 226.5,114.1" transform="rotate(270, 224, 112)" class="arrowhead"></polygon>
    <polygon points="231,176 226.5,173.9 226.5,178.1" transform="rotate(90, 224, 176)" class="arrowhead"></polygon>
    <polygon points="247,272 242.5,269.9 242.5,274.1" transform="rotate(270, 240, 272)" class="arrowhead"></polygon>
    <polygon points="247,336 242.5,333.9 242.5,338.1" transform="rotate(90, 240, 336)" class="arrowhead"></polygon>
    <polygon points="267,48 262.5,45.9 262.5,50.1" transform="rotate(0, 264, 48)" class="arrowhead"></polygon>
    <polygon points="267,304 262.5,301.9 262.5,306.1" transform="rotate(0, 264, 304)" class="arrowhead"></polygon>
    <polygon points="379,304 374.5,301.9 374.5,306.1" transform="rotate(180, 376, 304)" class="arrowhead"></polygon>
    <polygon points="399,288 394.5,285.9 394.5,290.1" transform="rotate(270, 392, 288)" class="arrowhead"></polygon>
    <polygon points="399,320 394.5,317.9 394.5,322.1" transform="rotate(90, 392, 320)" class="arrowhead"></polygon>
    <polygon points="411,304 406.5,301.9 406.5,306.1" transform="rotate(0, 408, 304)" class="arrowhead"></polygon>
  </g>
  <g id='roundedCorners'>
    <path class="path" d="M 252,96 A 4,4 0 0,1 256,100"></path>
    <path class="path" d="M 256,124 A 4,4 0 0,0 260,128"></path>
  </g>
  <g id='circles'>
    <circle cx="56" cy="480" r="4" class="filled"></circle>
    <circle cx="80" cy="448" r="4" class="filled"></circle>
    <circle cx="80" cy="512" r="4" class="filled"></circle>
    <circle cx="104" cy="480" r="4" class="filled"></circle>
    <circle cx="216" cy="480" r="4" class="filled"></circle>
    <circle cx="232" cy="464" r="4" class="filled"></circle>
    <circle cx="232" cy="496" r="4" class="filled"></circle>
    <circle cx="248" cy="480" r="4" class="filled"></circle>
  </g>
  <g id='text'>
    <text x="16" y="36">t</text>
    <text x="24" y="36">i</text>
    <text x="32" y="36">g</text>
    <text x="40" y="36">h</text>
    <text x="48" y="36">t</text>
    <text x="144" y="52">t</text>
    <text x="152" y="52">i</text>
    <text x="160" y="52">g</text>
    <text x="168" y="52">h</text>
    <text x="176" y="52">t</text>
    <text x="184" y="52">l</text>
    <text x="192" y="52">y</text>
    <text x="24" y="84">‹</text>
    <text x="32" y="84">L</text>
    <text x="40" y="84">o</text>
    <text x="48" y="84">r</text>
    <text x="56" y="84">e</text>
    <text x="64" y="84">m</text>
    <text x="80" y="84">i</text>
    <text x="88" y="84">p</text>
    <text x="96" y="84">s</text>
    <text x="104" y="84">u</text>
    <text x="112" y="84">m</text>
    <text x="120" y="84">›</text>
    <text x="144" y="84">t</text>
    <text x="152" y="84">i</text>
    <text x="160" y="84">g</text>
    <text x="168" y="84">h</text>
    <text x="176" y="84">t</text>
    <text x="184" y="84">l</text>
    <text x="192" y="84">y</text>
    <text x="24" y="100">·</text>
    <text x="32" y="100">L</text>
    <text x="40" y="100">o</text>
    <text x="48" y="100">r</text>
    <text x="56" y="100">e</text>
    <text x="64" y="100">m</text>
    <text x="72" y="100"> </text>
    <text x="80" y="100">i</text>
    <text x="88" y="100">p</text>
    <text x="96" y="100">s</text>
    <text x="104" y="100">u</text>
    <text x="112" y="100">m</text>
    <text x="120" y="100">·</text>
    <text x="272" y="100">X</text>
    <text x="232" y="116">X</text>
    <text x="72" y="164">a</text>
    <text x="80" y="164">b</text>
    <text x="88" y="164">c</text>
    <text x="104" y="164">·</text>
    <text x="112" y="164">l</text>
    <text x="120" y="164">m</text>
    <text x="128" y="164">n</text>
    <text x="144" y="164">‹</text>
    <text x="152" y="164">x</text>
    <text x="160" y="164">›</text>
    <text x="168" y="164">y</text>
    <text x="176" y="164">z</text>
    <text x="184" y="164">·</text>
    <text x="40" y="228">A</text>
    <text x="48" y="228">S</text>
    <text x="56" y="228">C</text>
    <text x="64" y="228">I</text>
    <text x="72" y="228">I</text>
    <text x="200" y="228">U</text>
    <text x="208" y="228">n</text>
    <text x="216" y="228">i</text>
    <text x="224" y="228">c</text>
    <text x="232" y="228">o</text>
    <text x="240" y="228">d</text>
    <text x="248" y="228">e</text>
    <text x="264" y="228">B</text>
    <text x="272" y="228">O</text>
    <text x="280" y="228">X</text>
    <text x="296" y="228">c</text>
    <text x="304" y="228">h</text>
    <text x="312" y="228">a</text>
    <text x="320" y="228">r</text>
    <text x="328" y="228">a</text>
    <text x="336" y="228">c</text>
    <text x="344" y="228">t</text>
    <text x="352" y="228">e</text>
    <text x="360" y="228">r</text>
    <text x="368" y="228">s</text>
    <text x="80" y="260">X</text>
    <text x="240" y="260">X</text>
    <text x="80" y="276">^</text>
    <text x="392" y="276">X</text>
    <text x="80" y="292">|</text>
    <text x="40" y="308">X</text>
    <text x="56" y="308">&lt;</text>
    <text x="64" y="308">-</text>
    <text x="72" y="308">-</text>
    <text x="80" y="308">*</text>
    <text x="88" y="308">-</text>
    <text x="96" y="308">-</text>
    <text x="104" y="308">&gt;</text>
    <text x="120" y="308">X</text>
    <text x="200" y="308">X</text>
    <text x="280" y="308">X</text>
    <text x="360" y="308">X</text>
    <text x="424" y="308">X</text>
    <text x="80" y="324">|</text>
    <text x="80" y="340">v</text>
    <text x="392" y="340">X</text>
    <text x="80" y="356">X</text>
    <text x="240" y="356">X</text>
    <text x="0" y="388">N</text>
    <text x="8" y="388">o</text>
    <text x="16" y="388">t</text>
    <text x="32" y="388">r</text>
    <text x="40" y="388">e</text>
    <text x="48" y="388">c</text>
    <text x="56" y="388">o</text>
    <text x="64" y="388">g</text>
    <text x="72" y="388">n</text>
    <text x="80" y="388">i</text>
    <text x="88" y="388">z</text>
    <text x="96" y="388">e</text>
    <text x="104" y="388">d</text>
    <text x="120" y="388">b</text>
    <text x="128" y="388">y</text>
    <text x="144" y="388">A</text>
    <text x="152" y="388">s</text>
    <text x="160" y="388">c</text>
    <text x="168" y="388">i</text>
    <text x="176" y="388">i</text>
    <text x="184" y="388">F</text>
    <text x="192" y="388">l</text>
    <text x="200" y="388">o</text>
    <text x="208" y="388">w</text>
    <text x="224" y="388">a</text>
    <text x="232" y="388">s</text>
    <text x="248" y="388">a</text>
    <text x="264" y="388">l</text>
    <text x="272" y="388">i</text>
    <text x="280" y="388">n</text>
    <text x="288" y="388">e</text>
    <text x="296" y="388">-</text>
    <text x="304" y="388">t</text>
    <text x="312" y="388">e</text>
    <text x="320" y="388">r</text>
    <text x="328" y="388">m</text>
    <text x="336" y="388">i</text>
    <text x="344" y="388">n</text>
    <text x="352" y="388">a</text>
    <text x="360" y="388">t</text>
    <text x="368" y="388">i</text>
    <text x="376" y="388">n</text>
    <text x="384" y="388">g</text>
    <text x="400" y="388">d</text>
    <text x="408" y="388">r</text>
    <text x="416" y="388">a</text>
    <text x="424" y="388">w</text>
    <text x="432" y="388">i</text>
    <text x="440" y="388">n</text>
    <text x="448" y="388">g</text>
    <text x="464" y="388">c</text>
    <text x="472" y="388">h</text>
    <text x="480" y="388">a</text>
    <text x="488" y="388">r</text>
    <text x="496" y="388">a</text>
    <text x="504" y="388">c</text>
    <text x="512" y="388">t</text>
    <text x="520" y="388">e</text>
    <text x="528" y="388">r</text>
    <text x="536" y="388">:</text>
    <text x="0" y="404">t</text>
    <text x="8" y="404">h</text>
    <text x="16" y="404">e</text>
    <text x="32" y="404">B</text>
    <text x="40" y="404">L</text>
    <text x="48" y="404">A</text>
    <text x="56" y="404">C</text>
    <text x="64" y="404">K</text>
    <text x="80" y="404">C</text>
    <text x="88" y="404">I</text>
    <text x="96" y="404">R</text>
    <text x="104" y="404">C</text>
    <text x="112" y="404">L</text>
    <text x="120" y="404">E</text>
    <text x="128" y="404">,</text>
    <text x="144" y="404">U</text>
    <text x="152" y="404">n</text>
    <text x="160" y="404">i</text>
    <text x="168" y="404">c</text>
    <text x="176" y="404">o</text>
    <text x="184" y="404">d</text>
    <text x="192" y="404">e</text>
    <text x="208" y="404">c</text>
    <text x="216" y="404">o</text>
    <text x="224" y="404">d</text>
    <text x="232" y="404">e</text>
    <text x="248" y="404">p</text>
    <text x="256" y="404">o</text>
    <text x="264" y="404">i</text>
    <text x="272" y="404">n</text>
    <text x="280" y="404">t</text>
    <text x="296" y="404">0</text>
    <text x="304" y="404">x</text>
    <text x="312" y="404">2</text>
    <text x="320" y="404">5</text>
    <text x="328" y="404">C</text>
    <text x="336" y="404">F</text>
    <text x="344" y="404">:</text>
    <text x="80" y="436">X</text>
    <text x="232" y="452">X</text>
    <text x="40" y="484">X</text>
    <text x="120" y="484">X</text>
    <text x="200" y="484">X</text>
    <text x="264" y="484">X</text>
    <text x="232" y="516">X</text>
    <text x="80" y="532">X</text>
  </g>
</g>
</svg>
