<svg xmlns="http://www.w3.org/2000/svg" version="1.1"
    width="696" height="90"
    viewBox="0 0 696 90">
  <style type="text/css" source-text-origin="source-independent defaults: shared by ASCII and UTF-8">
    svg {
        color-scheme: light dark; /* this becomes necessary if not inherited from parent elements */
        font-family: monospace;
        font-size: 15px;
    }
    text {
        stroke: none;
        text-anchor: middle;
    }
    .path {
        fill: none;
    }
    circle.filled {
        fill: inherit;
    }
    circle.hollow {
         fill: none;
    }
    svg {
        color: #212;  /* set value of 'currentColor' */
    }
    @media (prefers-color-scheme: dark) {
        svg {
            color: #FEF;  /* set value of 'currentColor' */
        }
    }
    svg {
        fill: currentColor;
        stroke: currentColor;
    }

    svg {
        background-color: #FEF
    }
    text {
        fill: #900
    }
    @media (prefers-color-scheme: dark) {
        svg {
            background-color: #212
        }
        text {
            fill: #FBB
        }
    }
  </style>

<g transform='translate(8,12)'>
  <g id='lines-vertical'>
    <polyline class="path" points="32,36 32,44"/>
    <polyline class="path" points="40,36 40,44"/>
    <polyline class="path" points="80,36 80,60"/>
    <polyline class="path" points="96,36 96,60"/>
  </g>
  <g id='lines-horizontal'>
    <polyline class="path" points="84,32 92,32"/>
    <polyline class="path" points="84,64 92,64"/>
  </g>
  <g id='triangles'>
  </g>
  <g id='roundedCorners'>
    <path class="path" d="M 36,32 A 4,4 0 0,0 32,36"></path>
    <path class="path" d="M 36,32 A 4,4 0 0,1 40,36"></path>
    <path class="path" d="M 84,32 A 4,4 0 0,0 80,36"></path>
    <path class="path" d="M 92,32 A 4,4 0 0,1 96,36"></path>
    <path class="path" d="M 32,44 A 4,4 0 0,0 36,48"></path>
    <path class="path" d="M 40,44 A 4,4 0 0,1 36,48"></path>
    <path class="path" d="M 80,60 A 4,4 0 0,0 84,64"></path>
    <path class="path" d="M 96,60 A 4,4 0 0,1 92,64"></path>
  </g>
  <g id='circles'>
  </g>
  <g id='text'>
    <text x="0" y="4">U</text>
    <text x="8" y="4">n</text>
    <text x="16" y="4">i</text>
    <text x="24" y="4">c</text>
    <text x="32" y="4">o</text>
    <text x="40" y="4">d</text>
    <text x="48" y="4">e</text>
    <text x="64" y="4">B</text>
    <text x="72" y="4">O</text>
    <text x="80" y="4">X</text>
    <text x="96" y="4">c</text>
    <text x="104" y="4">h</text>
    <text x="112" y="4">a</text>
    <text x="120" y="4">r</text>
    <text x="128" y="4">a</text>
    <text x="136" y="4">c</text>
    <text x="144" y="4">t</text>
    <text x="152" y="4">e</text>
    <text x="160" y="4">r</text>
    <text x="168" y="4">s</text>
    <text x="184" y="4">g</text>
    <text x="192" y="4">e</text>
    <text x="200" y="4">n</text>
    <text x="208" y="4">e</text>
    <text x="216" y="4">r</text>
    <text x="224" y="4">a</text>
    <text x="232" y="4">t</text>
    <text x="240" y="4">a</text>
    <text x="248" y="4">b</text>
    <text x="256" y="4">l</text>
    <text x="264" y="4">e</text>
    <text x="280" y="4">b</text>
    <text x="288" y="4">y</text>
    <text x="304" y="4">u</text>
    <text x="312" y="4">n</text>
    <text x="320" y="4">i</text>
    <text x="328" y="4">l</text>
    <text x="336" y="4">i</text>
    <text x="344" y="4">n</text>
    <text x="352" y="4">e</text>
    <text x="360" y="4">.</text>
    <text x="368" y="4">e</text>
    <text x="376" y="4">l</text>
    <text x="384" y="4">,</text>
    <text x="400" y="4">b</text>
    <text x="408" y="4">u</text>
    <text x="416" y="4">t</text>
    <text x="432" y="4">n</text>
    <text x="440" y="4">e</text>
    <text x="448" y="4">i</text>
    <text x="456" y="4">t</text>
    <text x="464" y="4">h</text>
    <text x="472" y="4">e</text>
    <text x="480" y="4">r</text>
    <text x="496" y="4">o</text>
    <text x="504" y="4">f</text>
    <text x="520" y="4">A</text>
    <text x="528" y="4">s</text>
    <text x="536" y="4">c</text>
    <text x="544" y="4">i</text>
    <text x="552" y="4">i</text>
    <text x="560" y="4">F</text>
    <text x="568" y="4">l</text>
    <text x="576" y="4">o</text>
    <text x="584" y="4">w</text>
    <text x="600" y="4">n</text>
    <text x="608" y="4">o</text>
    <text x="616" y="4">r</text>
    <text x="632" y="4">C</text>
    <text x="640" y="4">a</text>
    <text x="648" y="4">s</text>
    <text x="656" y="4">c</text>
    <text x="664" y="4">i</text>
    <text x="672" y="4">i</text>
    <text x="680" y="4">:</text>
    <text x="88" y="52">X</text>
  </g>
</g>
</svg>
