<svg xmlns="http://www.w3.org/2000/svg" version="1.1"
    width="184" height="58"
    viewBox="0 0 184 58">
  <style type="text/css" source-text-origin="source-independent defaults: shared by ASCII and UTF-8">
    svg {
        color-scheme: light dark; /* this becomes necessary if not inherited from parent elements */
        font-family: monospace;
        font-size: 15px;
    }
    text {
        stroke: none;
        text-anchor: middle;
    }
    .path {
        fill: none;
    }
    circle.filled {
        fill: inherit;
    }
    circle.hollow {
         fill: none;
    }
    svg {
        color: #000;  /* set value of 'currentColor' */
    }
    @media (prefers-color-scheme: dark) {
        svg {
            color: #FFF;  /* set value of 'currentColor' */
        }
    }
    svg {
        fill: currentColor;
        stroke: currentColor;
    }
  </style>

<g transform='translate(8,12)'>
  <g id='lines'>
    <polyline class="path" points="48,0 144,0"/>
    <polyline class="path" points="6,16 24,16"/>
    <polyline class="path" points="144,16 168,16"/>
    <polyline class="path" points="32,32 128,32"/>
    <polyline class="path" points="32,16 32,32"/>
    <polyline class="path" points="144,0 144,16"/>
  </g>
  <g id='triangles'>
    <polygon points="32,16 20,10.4 20,21.6" transform="rotate(0, 24, 16)" class="arrowhead"></polygon>
  </g>
  <g id='roundedCorners'>
    <path class="path" d="M 48,0 A 16,16 0 0,0 32,16"></path>
    <path class="path" d="M 144,16 A 16,16 0 0,1 128,32"></path>
  </g>
  <g id='circles'>
    <circle cx="0" cy="16" r="6" class="hollow"></circle>
    <circle cx="168" cy="16" r="6" class="filled"></circle>
  </g>
  <g id='bridges'>
  </g>
  <g id='text'>
    <text x="40" y="20">H</text>
    <text x="48" y="20">e</text>
    <text x="56" y="20">l</text>
    <text x="64" y="20">l</text>
    <text x="72" y="20">o</text>
    <text x="80" y="20">,</text>
    <text x="96" y="20">w</text>
    <text x="104" y="20">o</text>
    <text x="112" y="20">r</text>
    <text x="120" y="20">l</text>
    <text x="128" y="20">d</text>
</g>
</g>
</svg>
